<?xml version="1.0" standalone="no"?><!DOCTYPE svg PUBLIC "-//W3C//DTD SVG 1.1//EN" "http://www.w3.org/Graphics/SVG/1.1/DTD/svg11.dtd"><svg t="1762946729055" class="icon" viewBox="0 0 1070 1024" version="1.1" xmlns="http://www.w3.org/2000/svg" p-id="4740" xmlns:xlink="http://www.w3.org/1999/xlink" width="33.4375" height="32"><path d="M553.411765 304.941176c-10.039216 0-18.823529-8.784314-18.82353-18.823529V74.039216c0-10.039216 8.784314-18.823529 18.82353-18.82353s18.823529 8.784314 18.823529 18.82353v212.078431c0 10.039216-7.529412 18.823529-18.823529 18.823529z" fill="#ffffff" p-id="4741"></path><path d="M690.196078 186.980392c-3.764706 0-7.529412-1.254902-11.294117-3.764706L547.137255 89.098039c-8.784314-6.27451-10.039216-17.568627-5.019608-26.352941 6.27451-8.784314 17.568627-10.039216 26.352941-5.019608l133.019608 94.117647c8.784314 6.27451 10.039216 17.568627 5.019608 26.352941-3.764706 6.27451-10.039216 8.784314-16.313726 8.784314z" fill="#ffffff" p-id="4742"></path><path d="M420.392157 186.980392c-6.27451 0-11.294118-2.509804-15.058824-7.529412-6.27451-8.784314-3.764706-20.078431 5.019608-26.352941l133.019608-94.117647c8.784314-6.27451 20.078431-5.019608 26.352941 3.764706s3.764706 20.078431-5.019608 26.352941l-133.019607 94.117647c-3.764706 2.509804-7.529412 3.764706-11.294118 3.764706zM555.921569 968.784314c-10.039216 0-18.823529-8.784314-18.82353-18.82353V739.137255c0-10.039216 8.784314-18.823529 18.82353-18.82353s18.823529 8.784314 18.823529 18.82353v212.078431c0 10.039216-8.784314 17.568627-18.823529 17.568628z" fill="#ffffff" p-id="4743"></path><path d="M552.156863 968.784314c-3.764706 0-7.529412-1.254902-11.294118-3.764706l-133.019608-94.117647c-8.784314-6.27451-10.039216-17.568627-5.019608-26.352941 6.27451-8.784314 17.568627-10.039216 26.352942-5.019608l133.019607 94.117647c8.784314 6.27451 10.039216 17.568627 5.019608 26.352941-3.764706 6.27451-8.784314 8.784314-15.058823 8.784314z" fill="#ffffff" p-id="4744"></path><path d="M555.921569 968.784314c-6.27451 0-11.294118-2.509804-15.058824-7.529412-6.27451-8.784314-3.764706-20.078431 5.019608-26.352941L677.647059 840.784314c8.784314-6.27451 20.078431-3.764706 26.352941 5.019608s3.764706 20.078431-5.019608 26.352941L565.960784 966.27451c-2.509804 1.254902-6.27451 2.509804-10.039215 2.509804z" fill="#ffffff" p-id="4745"></path><path d="M991.372549 529.568627H780.54902c-10.039216 0-18.823529-8.784314-18.82353-18.823529s8.784314-18.823529 18.82353-18.823529H991.372549c10.039216 0 18.823529 8.784314 18.823529 18.823529s-7.529412 18.823529-18.823529 18.823529z" fill="#ffffff" p-id="4746"></path><path d="M897.254902 666.352941c-3.764706 0-7.529412-1.254902-11.294118-3.764706-8.784314-6.27451-10.039216-17.568627-5.019608-26.352941l94.117648-133.019608c6.27451-8.784314 17.568627-10.039216 26.352941-5.019608 8.784314 6.27451 10.039216 17.568627 5.019608 26.352942l-94.117648 133.019607c-2.509804 6.27451-8.784314 8.784314-15.058823 8.784314z" fill="#ffffff" p-id="4747"></path><path d="M991.372549 529.568627c-6.27451 0-11.294118-2.509804-15.058824-7.529411L882.196078 389.019608c-6.27451-8.784314-3.764706-20.078431 5.019608-26.352941s20.078431-3.764706 26.352941 5.019608l94.117648 133.019607c6.27451 8.784314 3.764706 20.078431-5.019608 26.352942-3.764706 1.254902-7.529412 2.509804-11.294118 2.509803z" fill="#ffffff" p-id="4748"></path><path d="M327.529412 532.078431H115.45098c-10.039216 0-18.823529-8.784314-18.823529-18.823529s8.784314-18.823529 18.823529-18.823529h212.078432c10.039216 0 18.823529 8.784314 18.823529 18.823529s-8.784314 18.823529-18.823529 18.823529z" fill="#ffffff" p-id="4749"></path><path d="M115.45098 528.313725c-3.764706 0-7.529412-1.254902-11.294117-3.764705-8.784314-6.27451-10.039216-17.568627-5.019608-26.352942l94.117647-133.019607c6.27451-8.784314 17.568627-10.039216 26.352941-5.019608 8.784314 6.27451 10.039216 17.568627 5.019608 26.352941l-94.117647 133.019608c-3.764706 6.27451-10.039216 8.784314-15.058824 8.784313z" fill="#ffffff" p-id="4750"></path><path d="M209.568627 665.098039c-6.27451 0-11.294118-2.509804-15.058823-7.529412L99.137255 523.294118c-6.27451-8.784314-3.764706-20.078431 5.019608-26.352942s20.078431-3.764706 26.352941 5.019608l94.117647 133.019608c6.27451 8.784314 3.764706 20.078431-5.019608 26.352941-2.509804 2.509804-6.27451 3.764706-10.039216 3.764706z" fill="#ffffff" p-id="4751"></path><path d="M552.156863 643.764706c-75.294118 0-135.529412-61.490196-135.529412-135.529412 0-75.294118 61.490196-135.529412 135.529412-135.529412 75.294118 0 135.529412 61.490196 135.529412 135.529412S626.196078 643.764706 552.156863 643.764706z m0-233.411765c-53.960784 0-97.882353 43.921569-97.882353 97.882353s43.921569 97.882353 97.882353 97.882353 97.882353-43.921569 97.882353-97.882353-43.921569-97.882353-97.882353-97.882353z" fill="#ffffff" p-id="4752"></path></svg>